<?xml version="1.0" encoding="UTF-8"?>
<svg version="1.1" xmlns="http://www.w3.org/2000/svg" width="99" height="123">
<path d="M0 0 C9.57 0 19.14 0 29 0 C30.79689555 3.5937911 31.43292729 5.74999974 32 9.62109375 C32.2475 11.27334961 32.2475 11.27334961 32.5 12.95898438 C32.7475 14.68084961 32.7475 14.68084961 33 16.4375 C33.2475 18.1071582 33.2475 18.1071582 33.5 19.81054688 C34.18498128 24.43149483 34.86222511 29.05355185 35.53515625 33.67626953 C35.70917969 34.84657715 35.88320313 36.01688477 36.0625 37.22265625 C36.21847656 38.28363525 36.37445313 39.34461426 36.53515625 40.43774414 C36.87242853 42.97849897 36.87242853 42.97849897 38 45 C38.15654462 46.45528516 38.27575548 47.91468783 38.375 49.375 C38.73892436 53.49738457 39.50309572 57.3461936 40.5390625 61.3515625 C40.81186035 62.41455566 41.0846582 63.47754883 41.36572266 64.57275391 C41.57503418 65.37374512 41.7843457 66.17473633 42 67 C42.19110352 65.78755615 42.38220703 64.5751123 42.57910156 63.32592773 C49.29979432 20.72115179 49.29979432 20.72115179 53 0 C62.9 0 72.8 0 83 0 C84.30192185 2.6038437 84.19460969 4.62509086 84.28125 7.5390625 C84.33732422 9.24835937 84.33732422 9.24835937 84.39453125 10.9921875 C84.44673828 12.79042969 84.44673828 12.79042969 84.5 14.625 C84.78352249 23.94973964 85.23280353 33.24850727 85.84222412 42.55706787 C86.3753237 50.81134665 86.86609167 59.0683307 87.35717773 67.32519531 C87.49363792 69.60137065 87.63229623 71.87741532 87.77319336 74.15332031 C88.65775577 88.46733605 89.15415275 102.6570915 89 117 C80.75 117 72.5 117 64 117 C63.00432753 93.67281632 62.48872401 70.34246467 62 47 C61.18152666 51.14467683 60.37131538 55.29092857 59.5625 59.4375 C59.33240234 60.60216797 59.10230469 61.76683594 58.86523438 62.96679688 C57.63200771 69.31165871 56.65236129 75.57139121 56 82 C55 87 54 92 53 97 C45.41 97 37.82 97 30 97 C29.62875 94.9375 29.2575 92.875 28.875 90.75 C27.16551831 81.43230725 25.1242626 72.1853181 23.06982422 62.93847656 C22.8173291 61.78444336 22.56483398 60.63041016 22.3046875 59.44140625 C22.07765137 58.41732666 21.85061523 57.39324707 21.61669922 56.33813477 C20.86000563 52.24222369 20.41108411 48.14287881 20 44 C20.00785522 44.88631104 20.00785522 44.88631104 20.01586914 45.79052734 C20.13785364 61.8893932 19.71901691 77.91863194 19 94 C18.90317765 96.251282 18.80682171 98.5025841 18.7109375 100.75390625 C18.48014494 106.16957313 18.23991837 111.5846997 18 117 C10.08 117 2.16 117 -6 117 C-6.83694275 113.65222902 -7.08575173 111.72449643 -6.9140625 108.40234375 C-6.84832031 107.07493164 -6.84832031 107.07493164 -6.78125 105.72070312 C-6.7296875 104.80224609 -6.678125 103.88378906 -6.625 102.9375 C-6.58117187 102.04611328 -6.53734375 101.15472656 -6.4921875 100.23632812 C-6.26210826 95.80410727 -5.95555613 91.39327799 -5.51953125 86.9765625 C-4.82996117 79.66957317 -4.52863424 72.34328254 -4.18405151 65.01364136 C-3.97542818 60.59211524 -3.75741605 56.17105479 -3.5390625 51.75 C-3.49484665 50.85401596 -3.4506308 49.95803192 -3.40507507 49.03489685 C-2.99242206 40.73453061 -2.54484347 32.4364091 -2.06466675 24.13967896 C-1.98066793 22.68505007 -1.89774134 21.23035884 -1.81594849 19.77560425 C-1.70200111 17.75517425 -1.58351543 15.73500177 -1.46484375 13.71484375 C-1.399021 12.58167725 -1.33319824 11.44851074 -1.26538086 10.28100586 C-0.98700873 6.83938397 -0.48830835 3.41815845 0 0 Z M18 35 C19 39 19 39 19 39 Z " fill="#0D0D0D" transform="translate(8,5)"/>
<path d="M0 0 C0.66 0 1.32 0 2 0 C3.06375135 3.19125404 3.13335484 5.52470971 3.125 8.875 C3.12757812 9.90367188 3.13015625 10.93234375 3.1328125 11.9921875 C3.00995061 14.774648 2.62944236 17.29239874 2 20 C1.67 20 1.34 20 1 20 C0.93941406 19.25234375 0.87882812 18.5046875 0.81640625 17.734375 C0.73261719 16.74953125 0.64882812 15.7646875 0.5625 14.75 C0.48128906 13.77546875 0.40007812 12.8009375 0.31640625 11.796875 C0.07451333 9.08028068 0.07451333 9.08028068 -0.5625 6.8125 C-1.15783239 4.34612296 -0.6074872 2.42994879 0 0 Z " fill="#545454" transform="translate(70,38)"/>
<path d="M0 0 C2.35333796 4.70667591 2.17102038 6.8693886 2 12 C2.66 12.33 3.32 12.66 4 13 C3.67 14.32 3.34 15.64 3 17 C2.01 16.67 1.02 16.34 0 16 C0 10.72 0 5.44 0 0 Z " fill="#656565" transform="translate(25,32)"/>
</svg>
